<?xml version="1.0" encoding="utf-8"?>
<!-- Generator: Adobe Illustrator 18.1.0, SVG Export Plug-In . SVG Version: 6.00 Build 0)  -->
<!DOCTYPE svg PUBLIC "-//W3C//DTD SVG 1.1//EN" "http://www.w3.org/Graphics/SVG/1.1/DTD/svg11.dtd">
<svg version="1.1" id="icon-notification" xmlns="http://www.w3.org/2000/svg" xmlns:xlink="http://www.w3.org/1999/xlink" x="0px"
	 y="0px" width="24px" height="24px" viewBox="0 0 24 24" enable-background="new 0 0 24 24" xml:space="preserve">
<path id="path" fill="#757575" d="M19.8,16.7L18.5,15v-3c0-3.2-2.1-6-5-6.7V4.5c0-0.9-0.7-1.6-1.5-1.6s-1.5,0.7-1.5,1.6v0.8
	c-2.9,0.7-5,3.5-5,6.7v3l-1.2,1.6l-0.1,0.1C4,17.2,4,17.8,4.3,18.2c0.3,0.4,0.7,0.7,1.2,0.7h4c0.2,1.1,1.2,2,2.4,2s2.2-0.9,2.4-2h4
	c0.5,0,1-0.3,1.2-0.7C20,17.8,20,17.2,19.8,16.7z M12,19.9c-0.7,0-1.2-0.4-1.4-1h2.8C13.2,19.5,12.7,19.9,12,19.9z M18.8,17.7
	c-0.1,0.1-0.2,0.2-0.4,0.2h-3.9v0h-5v0H5.6c-0.2,0-0.3-0.1-0.4-0.2c-0.1-0.2-0.1-0.4-0.1-0.5l1.4-1.8V12c0-2.8,1.7-5.1,4.2-5.7
	L11.5,6V4.5c0-0.3,0.2-0.6,0.5-0.6s0.5,0.3,0.5,0.6V6l0.8,0.2c2.5,0.6,4.2,3,4.2,5.7v3.4l1.4,1.9C19,17.4,18.9,17.5,18.8,17.7z"/>
</svg>
