<?xml version="1.0" encoding="utf-8"?>
<!-- Generator: Adobe Illustrator 18.1.0, SVG Export Plug-In . SVG Version: 6.00 Build 0)  -->
<!DOCTYPE svg PUBLIC "-//W3C//DTD SVG 1.1//EN" "http://www.w3.org/Graphics/SVG/1.1/DTD/svg11.dtd">
<svg version="1.1" id="icon-value-proposition" xmlns="http://www.w3.org/2000/svg" xmlns:xlink="http://www.w3.org/1999/xlink"
	 x="0px" y="0px" width="24px" height="24px" viewBox="0 0 24 24" enable-background="new 0 0 24 24" xml:space="preserve">
<g>
	<g>
		<path fill="#8C9393" d="M16,8H8C7.7,8,7.5,7.8,7.5,7.5S7.7,7,8,7h8c0.3,0,0.5,0.2,0.5,0.5S16.3,8,16,8z"/>
	</g>
	<g>
		<path fill="#8C9393" d="M16,11H8c-0.3,0-0.5-0.2-0.5-0.5S7.7,10,8,10h8c0.3,0,0.5,0.2,0.5,0.5S16.3,11,16,11z"/>
	</g>
	<g>
		<path fill="#8C9393" d="M16,14H8c-0.3,0-0.5-0.2-0.5-0.5S7.7,13,8,13h8c0.3,0,0.5,0.2,0.5,0.5S16.3,14,16,14z"/>
	</g>
	<g>
		<path fill="#8C9393" d="M20.5,22.1C20.5,22.1,20.5,22.1,20.5,22.1c-0.3,0-0.6-0.1-0.9-0.3l-4.9-3.5c-0.3-0.2-0.6-0.3-0.9-0.3H4.5
			C3.1,18,2,16.9,2,15.5v-10C2,4.1,3.1,3,4.5,3h15C20.9,3,22,4.1,22,5.5v15.1c0,0.4-0.2,0.8-0.5,1.1C21.3,21.9,20.9,22.1,20.5,22.1z
			 M4.5,4C3.7,4,3,4.7,3,5.5v10C3,16.3,3.7,17,4.5,17h9.4c0.5,0,1,0.2,1.5,0.5l4.9,3.5c0.1,0.1,0.2,0.1,0.3,0.1l0,0
			c0.1,0,0.3-0.1,0.4-0.1c0.1-0.1,0.2-0.2,0.2-0.4V5.5C21,4.7,20.3,4,19.5,4H4.5z"/>
	</g>
</g>
</svg>
