<?xml version="1.0" encoding="utf-8"?>
<!-- Generator: Adobe Illustrator 18.1.0, SVG Export Plug-In . SVG Version: 6.00 Build 0)  -->
<!DOCTYPE svg PUBLIC "-//W3C//DTD SVG 1.1//EN" "http://www.w3.org/Graphics/SVG/1.1/DTD/svg11.dtd">
<svg version="1.1" id="icon-search" xmlns="http://www.w3.org/2000/svg" xmlns:xlink="http://www.w3.org/1999/xlink" x="0px"
	 y="0px" width="24px" height="24px" viewBox="0 0 24 24" enable-background="new 0 0 24 24" xml:space="preserve">
<g id="path">
	<g>
		<path fill="#757575" d="M20.7,19.3l-4.8-4.8c0.9-1.2,1.5-2.7,1.5-4.3c0-4-3.2-7.2-7.2-7.2C6.2,3,3,6.2,3,10.2s3.2,7.2,7.2,7.2
			c1.6,0,3.1-0.5,4.3-1.5l4.8,4.8c0.2,0.2,0.5,0.3,0.7,0.3s0.5-0.1,0.7-0.3C21.1,20.3,21.1,19.7,20.7,19.3z M4,10.2
			C4,6.8,6.8,4,10.2,4c3.4,0,6.2,2.8,6.2,6.2c0,3.4-2.8,6.2-6.2,6.2C6.8,16.4,4,13.6,4,10.2z"/>
	</g>
</g>
</svg>
