<?xml version="1.0" encoding="utf-8"?>
<!-- Generator: Adobe Illustrator 18.1.0, SVG Export Plug-In . SVG Version: 6.00 Build 0)  -->
<!DOCTYPE svg PUBLIC "-//W3C//DTD SVG 1.1//EN" "http://www.w3.org/Graphics/SVG/1.1/DTD/svg11.dtd">
<svg version="1.1" id="icon-comment" xmlns="http://www.w3.org/2000/svg" xmlns:xlink="http://www.w3.org/1999/xlink" x="0px"
	 y="0px" width="24px" height="24px" viewBox="0 0 24 24" enable-background="new 0 0 24 24" xml:space="preserve">
<g id="path">
	<path fill="#8C9393" d="M18.6,3H5.4C4.1,3,3,4.1,3,5.4V15c0,1.3,1.1,2.4,2.4,2.4h3L12,21l3.6-3.6h3c1.3,0,2.4-1.1,2.4-2.4V5.4
		C21,4.1,19.9,3,18.6,3z M20,15c0,0.8-0.6,1.4-1.4,1.4h-3.4L12,19.6l-3.2-3.2H5.4C4.6,16.4,4,15.8,4,15V5.4C4,4.6,4.6,4,5.4,4h13.2
		C19.4,4,20,4.6,20,5.4V15z"/>
</g>
</svg>
