<?xml version="1.0" encoding="utf-8"?><!DOCTYPE svg PUBLIC "-//W3C//DTD SVG 1.1//EN" "http://www.w3.org/Graphics/SVG/1.1/DTD/svg11.dtd"><svg xmlns="http://www.w3.org/2000/svg" xmlns:xlink="http://www.w3.org/1999/xlink">
  <symbol viewBox="0 0 24 24" id="icon-grid" xmlns="http://www.w3.org/2000/svg">
    <g><path d="M4 4h4v4H4zM10 4h4v4h-4zM16 4h4v4h-4zM4 10h4v4H4zM10 10h4v4h-4zM16 10h4v4h-4zM4 16h4v4H4zM10 16h4v4h-4zM16 16h4v4h-4z"/></g>
  </symbol>

  <symbol viewBox="0 0 24 24" id="icon-comment" xmlns="http://www.w3.org/2000/svg">
    <path d="M18.6 3H5.4C4.1 3 3 4.1 3 5.4V15c0 1.3 1.1 2.4 2.4 2.4h3L12 21l3.6-3.6h3c1.3 0 2.4-1.1 2.4-2.4V5.4C21 4.1 19.9 3 18.6 3zM20 15c0 .8-.6 1.4-1.4 1.4h-3.4L12 19.6l-3.2-3.2H5.4c-.8 0-1.4-.6-1.4-1.4V5.4C4 4.6 4.6 4 5.4 4h13.2c.8 0 1.4.6 1.4 1.4V15z"/>
  </symbol>

  <symbol viewBox="0 0 24 24" id="icon-filter" xmlns="http://www.w3.org/2000/svg">
    <path d="M21 5.9s-.1.1 0 0c-.1.1-.1.1 0 0-.5 1.6-4.4 5.7-6.9 8.2v4.5L9.9 21v-6.9C7.4 11.6 3.5 7.5 3.1 6v-.1-.2C3 4.4 7.2 3 12 3s9 1.4 9 2.8v.1zM12 4C7.8 4 4.1 5 4.1 5.8S7.8 7.5 12 7.5s7.9-1 7.9-1.7S16.2 4 12 4z"/>
  </symbol>

  <symbol viewBox="0 0 24 24" id="icon-remove" xmlns="http://www.w3.org/2000/svg">
    <path d="M4 11h16v2H4z"/>
  </symbol>

  <symbol viewBox="0 0 24 24" id="icon-more" xmlns="http://www.w3.org/2000/svg">
    <g>
      <circle cx="5" cy="12" r="2"/>
      <circle cx="12" cy="12" r="2"/>
      <circle cx="19" cy="12" r="2"/>
    </g>
  </symbol>

  <symbol viewBox="-408 286.3 24 24" id="icon-next" xmlns="http://www.w3.org/2000/svg">
    <path d="M-400 289.3c.3 0 .5.1.7.3l8 8c.2.2.3.4.3.7s-.1.5-.3.7l-8 8c-.4.4-1 .4-1.4 0s-.4-1 0-1.4l7.3-7.3-7.3-7.3c-.4-.4-.4-1 0-1.4.2-.2.4-.3.7-.3z"/>
  </symbol>

  <symbol viewBox="0 0 24 24" id="icon-notification" xmlns="http://www.w3.org/2000/svg">
    <path d="M19.8 16.7L18.5 15v-3c0-3.2-2.1-6-5-6.7v-.8c0-.9-.7-1.6-1.5-1.6s-1.5.7-1.5 1.6v.8c-2.9.7-5 3.5-5 6.7v3l-1.2 1.6-.1.1c-.2.5-.2 1.1.1 1.5.3.4.7.7 1.2.7h4c.2 1.1 1.2 2 2.4 2s2.2-.9 2.4-2h4c.5 0 1-.3 1.2-.7.5-.4.5-1 .3-1.5zM12 19.9c-.7 0-1.2-.4-1.4-1h2.8c-.2.6-.7 1-1.4 1zm6.8-2.2c-.1.1-.2.2-.4.2H5.6c-.2 0-.3-.1-.4-.2-.1-.2-.1-.4-.1-.5l1.4-1.8V12c0-2.8 1.7-5.1 4.2-5.7l.8-.3V4.5c0-.3.2-.6.5-.6s.5.3.5.6V6l.8.2c2.5.6 4.2 3 4.2 5.7v3.4l1.4 1.9c.1.2 0 .3-.1.5z"/>
  </symbol>

  <symbol viewBox="0 0 24 24" id="icon-add" xmlns="http://www.w3.org/2000/svg">
    <path d="M11 4h2v16h-2z"/><path d="M4 11h16v2H4z"/>
  </symbol>

  <symbol viewBox="-408 286.3 24 24" id="icon-previous" xmlns="http://www.w3.org/2000/svg">
    <path d="M-381 290.3l8 8M-373 298.3l-8 8M-393 307.3c-.3 0-.5-.1-.7-.3l-8-8c-.2-.2-.3-.4-.3-.7s.1-.5.3-.7l8-8c.4-.4 1-.4 1.4 0s.4 1 0 1.4l-7.3 7.3 7.3 7.3c.4.4.4 1 0 1.4-.2.2-.4.3-.7.3z"/>
  </symbol>

  <symbol viewBox="0 0 24 24" id="icon-search" xmlns="http://www.w3.org/2000/svg">
    <path d="M20.7 19.3l-4.8-4.8c.9-1.2 1.5-2.7 1.5-4.3 0-4-3.2-7.2-7.2-7.2S3 6.2 3 10.2s3.2 7.2 7.2 7.2c1.6 0 3.1-.5 4.3-1.5l4.8 4.8c.2.2.5.3.7.3s.5-.1.7-.3c.4-.4.4-1 0-1.4zM4 10.2C4 6.8 6.8 4 10.2 4c3.4 0 6.2 2.8 6.2 6.2 0 3.4-2.8 6.2-6.2 6.2-3.4 0-6.2-2.8-6.2-6.2z"/>
  </symbol>

  <symbol viewBox="0 0 24 24" id="icon-select" xmlns="http://www.w3.org/2000/svg">
    <path d="M16 10l-4 4-4-4z"/>
  </symbol>

  <symbol viewBox="0 0 24 24" id="icon-settings" xmlns="http://www.w3.org/2000/svg">
    <path d="M19.4 13c0-.3.1-.6.1-1s0-.7-.1-1l2.1-1.6c.2-.1.2-.4.1-.6l-2-3.5c-.1-.2-.4-.3-.6-.2l-2.5 1c-.5-.4-1.1-.7-1.7-1l-.4-2.7c.1-.2-.1-.4-.4-.4h-4c-.2 0-.5.2-.5.4l-.4 2.7c-.6.2-1.1.6-1.7 1l-2.5-1c-.2-.1-.4 0-.6.2l-2 3.5c-.1.1 0 .4.2.6L4.6 11c0 .3-.1.6-.1 1s0 .7.1 1l-2.1 1.6c-.2.1-.2.4-.1.6l2 3.5c.1.2.3.3.6.2l2.5-1c.5.4 1.1.7 1.7 1l.4 2.6c0 .2.2.4.5.4h4c.3 0 .5-.2.5-.4l.4-2.6c.6-.3 1.2-.6 1.7-1l2.5 1c.2.1.5 0 .6-.2l2-3.5c.1-.2.1-.5-.1-.6L19.4 13zM12 15.5c-1.9 0-3.5-1.6-3.5-3.5s1.6-3.5 3.5-3.5 3.5 1.6 3.5 3.5-1.6 3.5-3.5 3.5z"/>
  </symbol>

  <symbol viewBox="0 0 24 24" id="icon-stats" xmlns="http://www.w3.org/2000/svg">
    <g>
      <path d="M7 11v9H3v-9h4m1-1H2v11h6V10zM21 16v4h-4v-4h4m1-1h-6v6h6v-6zM14 5v15h-4V5h4m1-1H9v17h6V4z"/>
    </g>
  </symbol>

  <symbol viewBox="0 0 24 24" id="icon-edit" xmlns="http://www.w3.org/2000/svg">
    <path d="M18 6c-1.4-1.4-2.8-2.2-3.2-1.8L4.2 14.9l.4 4.6 4.6.4L19.7 9.2c.4-.4-.4-1.8-1.7-3.2zM8.9 18.9l-3.7-3.7L15 5.4c.3.6.9 1.4 1.6 2.1.7.7 1.5 1.3 2.1 1.6l-9.8 9.8z"/>
  </symbol>

  <symbol viewBox="0 0 24 24" id="icon-downvote" xmlns="http://www.w3.org/2000/svg">
    <path d="M4.1 12.5h.6c-.6 0-1.2.5-1.2 1.2 0 1.3 1 2.3 2.3 2.3h5.5l-.2 1.8c-.1 1.1-.1 2.2.2 3.3.2 1.1 1.2 1.9 2.3 1.9h1.6v-3.5l2-5.9c.2-.7.8-1.2 1.5-1.5l2.4-.8v-7l-1.4-1c-1.4-.8-3-1.3-4.6-1.3H7C5.8 2 4.7 3 4.7 4.3c0 .6.5 1.2 1.2 1.2H4.7c-.6 0-1.2.5-1.2 1.2v1.2c0 .6.6 1.1 1.2 1.1h-.6C3.5 9 3 9.5 3 10.2v1.2c0 .6.5 1.1 1.1 1.1zM4 10.2c0-.1 0-.2.1-.2h.6c.6 0 1-.4 1-1s-.4-1-1-1c-.1 0-.2-.1-.2-.2V6.7c0-.1.1-.2.2-.2h1.2c.6 0 1-.4 1-1s-.4-1-1-1c-.1 0-.2-.1-.2-.2C5.7 3.6 6.3 3 7 3h8c1.4 0 2.8.4 4 1.2l1 .7v5.7l-1.7.6c-1 .3-1.8 1.1-2.1 2.1l-2 5.9c0 .1-.1.2-.1.3V22h-.6c-.6 0-1.2-.5-1.3-1.1-.2-1-.3-2-.2-3l.2-1.8c0-.3-.1-.6-.2-.8-.2-.2-.5-.3-.7-.3H5.9c-.7 0-1.3-.6-1.3-1.3 0-.1.1-.2.2-.2.6 0 1-.4 1-1s-.4-1-1-1h-.7c-.1 0-.1-.1-.1-.2v-1.1z"/>
  </symbol>

  <symbol viewBox="0 0 24 24" id="icon-upvote" xmlns="http://www.w3.org/2000/svg">
    <path d="M19.9 11.5h-.6c.6 0 1.2-.5 1.2-1.2 0-1.3-1-2.3-2.3-2.3h-5.5l.2-1.8c.1-1.1 0-2.2-.2-3.3-.2-1.1-1.2-1.9-2.3-1.9H8.8v3.5l-2 5.9c-.2.7-.8 1.2-1.5 1.5l-2.3.8v7l1.4 1c1.3.8 2.9 1.3 4.5 1.3H17c1.3 0 2.3-1 2.3-2.3 0-.6-.5-1.2-1.2-1.2h1.2c.6 0 1.2-.5 1.2-1.2v-1.2c0-.6-.5-1.2-1.2-1.2h.6c.6 0 1.2-.5 1.2-1.2v-1.2c-.1-.5-.6-1-1.2-1zm.1 2.3c0 .1-.1.2-.2.2h-.6c-.6 0-1 .4-1 1s.4 1 1 1c.1 0 .2.1.2.2v1.2c0 .1-.1.2-.2.2H18c-.6 0-1 .4-1 1s.4 1 1 1c.1 0 .2.1.2.2 0 .7-.6 1.3-1.3 1.3h-8c-1.4 0-2.8-.4-4-1.2l-1-.7v-5.7l1.7-.6c1-.3 1.8-1.1 2.1-2.1l2-5.9c0-.1.1-.2.1-.3V2h.6c.6 0 1.2.5 1.3 1.1.2 1 .3 2 .2 3l-.2 1.8c0 .3.1.6.2.8.2.2.5.3.8.3h5.4c.7 0 1.3.6 1.3 1.3 0 .1-.1.2-.2.2-.6 0-1 .4-1 1s.4 1 1 1h.6c.1 0 .2.1.2.2v1.1z"/>
  </symbol>

  <symbol viewBox="0 0 24 24" id="icon-tick" xmlns="http://www.w3.org/2000/svg">
    <path d="M8.6 20.4c-.3 0-.5-.1-.7-.3L.4 12.6c-.4-.4-.4-1 0-1.4s1-.4 1.4 0L8.6 18 22.3 4.3c.4-.4 1-.4 1.4 0 .4.4.4 1 0 1.4L9.3 20.1c-.2.2-.4.3-.7.3z"/>
  </symbol>

  <symbol viewBox="0 0 24 24" id="icon-update-phase" xmlns="http://www.w3.org/2000/svg">
    <path d="M16 8H8c-.3 0-.5-.2-.5-.5S7.7 7 8 7h8c.3 0 .5.2.5.5s-.2.5-.5.5zM16 11H8c-.3 0-.5-.2-.5-.5s.2-.5.5-.5h8c.3 0 .5.2.5.5s-.2.5-.5.5zM16 14H8c-.3 0-.5-.2-.5-.5s.2-.5.5-.5h8c.3 0 .5.2.5.5s-.2.5-.5.5z"/>
    <path d="M20.5 22.1c-.3 0-.6-.1-.9-.3l-4.9-3.5c-.3-.2-.6-.3-.9-.3H4.5C3.1 18 2 16.9 2 15.5v-10C2 4.1 3.1 3 4.5 3h15C20.9 3 22 4.1 22 5.5v15.1c0 .4-.2.8-.5 1.1-.2.2-.6.4-1 .4zM4.5 4C3.7 4 3 4.7 3 5.5v10c0 .8.7 1.5 1.5 1.5h9.4c.5 0 1 .2 1.5.5l4.9 3.5c.1.1.2.1.3.1.1 0 .3-.1.4-.1.1-.1.2-.2.2-.4V5.5C21 4.7 20.3 4 19.5 4h-15z"/>
  </symbol>

  <symbol viewBox="0 0 24 24" id="icon-usecase" xmlns="http://www.w3.org/2000/svg">
    <path d="M7.9 3C6 3 4.4 4.6 4.4 6.5S6 10 7.9 10s3.5-1.6 3.5-3.5S9.8 3 7.9 3zm0 6C6.5 9 5.4 7.9 5.4 6.5S6.5 4 7.9 4s2.5 1.1 2.5 2.5S9.3 9 7.9 9zM16.1 4c-1.9 0-3.5 1.6-3.5 3.5s1.6 3.5 3.5 3.5 3.5-1.6 3.5-3.5S18 4 16.1 4zm0 6c-1.4 0-2.5-1.1-2.5-2.5S14.7 5 16.1 5s2.5 1.1 2.5 2.5-1.1 2.5-2.5 2.5z"/>
    <path d="M9.8 9H6c-1.9 0-3.3 1.7-3 3.5l1.1 5.8c.2 1 1 1.6 2 1.6h3.7c1 0 1.8-.7 2-1.6l1.1-5.8c.2-1.8-1.2-3.5-3.1-3.5zm2 3.4l-1.1 5.8c-.1.5-.5.8-1 .8H6.1c-.5 0-.9-.3-1-.8L4 12.4c-.1-.6.1-1.2.4-1.6.4-.5 1-.8 1.6-.8h3.8c.6 0 1.2.3 1.5.7.4.5.6 1.1.5 1.7zM18 10h-1.9c-.3 0-.2 1 0 1H18c.6 0 1.2.3 1.5.7.4.5.5 1.1.4 1.6l-1.1 5.8c-.1.5-.5.8-1 .8h-3.7c-.5 0-.9-.3-1-.8l-.4-1.9-.2 1.3c-.1.3-.2.7-.4 1 .2.9 1 1.5 1.9 1.5h3.7c1 0 1.8-.7 2-1.6l1.1-5.8c.5-1.9-.9-3.6-2.8-3.6z"/>
  </symbol>

  <symbol viewBox="0 0 24 24" id="icon-comment-active" xmlns="http://www.w3.org/2000/svg">
    <path d="M16 8H8c-.3 0-.5-.2-.5-.5S7.7 7 8 7h8c.3 0 .5.2.5.5s-.2.5-.5.5zM16 11H8c-.3 0-.5-.2-.5-.5s.2-.5.5-.5h8c.3 0 .5.2.5.5s-.2.5-.5.5zM16 14H8c-.3 0-.5-.2-.5-.5s.2-.5.5-.5h8c.3 0 .5.2.5.5s-.2.5-.5.5z"/>
    <path d="M20.5 22.1c-.3 0-.6-.1-.9-.3l-4.9-3.5c-.3-.2-.6-.3-.9-.3H4.5C3.1 18 2 16.9 2 15.5v-10C2 4.1 3.1 3 4.5 3h15C20.9 3 22 4.1 22 5.5v15.1c0 .4-.2.8-.5 1.1-.2.2-.6.4-1 .4zM4.5 4C3.7 4 3 4.7 3 5.5v10c0 .8.7 1.5 1.5 1.5h9.4c.5 0 1 .2 1.5.5l4.9 3.5c.1.1.2.1.3.1.1 0 .3-.1.4-.1.1-.1.2-.2.2-.4V5.5C21 4.7 20.3 4 19.5 4h-15z"/>
  </symbol>
</svg>
