<?xml version="1.0" encoding="utf-8"?><!DOCTYPE svg PUBLIC "-//W3C//DTD SVG 1.1//EN" "http://www.w3.org/Graphics/SVG/1.1/DTD/svg11.dtd"><svg xmlns="http://www.w3.org/2000/svg" xmlns:xlink="http://www.w3.org/1999/xlink">
  <symbol viewBox="0 0 24 24" id="icon-3dmodel" xmlns="http://www.w3.org/2000/svg">
    <path d="M21 5.6l-8-4.4c-.3-.1-.7-.2-1-.2s-.7.1-1 .2L3 5.6c-.6.4-1 1.1-1 1.8V16c0 .7.4 1.4 1 1.8l8 4.4c.3.2.6.2 1 .2s.7-.1 1-.2l8-4.4c.6-.4 1-1 1-1.8V7.4c0-.7-.4-1.4-1-1.8zm-9.5-3.5c.2-.1.3-.1.5-.1s.3 0 .5.1l8 4.4c.1 0 .1.1.1.1l-8.5 4.7-8.7-4.7.1-.1 8-4.4zm-8 14.8c-.3-.2-.5-.5-.5-.9V7.6l8.5 4.5v9.2l-8-4.4zm17 0l-8 4.4v-9.1L21 7.6V16c0 .4-.2.7-.5.9z"/>
  </symbol>
  <symbol viewBox="0 0 24 24" id="icon-be-informed" xmlns="http://www.w3.org/2000/svg">
    <path d="M20.7 19.3l-4.8-4.8c.9-1.2 1.5-2.7 1.5-4.3 0-4-3.2-7.2-7.2-7.2S3 6.2 3 10.2s3.2 7.2 7.2 7.2c1.6 0 3.1-.5 4.3-1.5l4.8 4.8c.2.2.5.3.7.3s.5-.1.7-.3c.4-.4.4-1 0-1.4zM4 10.2C4 6.8 6.8 4 10.2 4s6.2 2.8 6.2 6.2-2.8 6.2-6.2 6.2S4 13.6 4 10.2z"/>
  </symbol>
  <symbol viewBox="0 0 24 24" id="icon-browse-list" xmlns="http://www.w3.org/2000/svg">
    <g><path d="M4 4h4v4H4zM4 10h4v4H4zM4 16h4v4H4zM11 5h9v2h-9zM11 11h9v2h-9zM11 17h9v2h-9z"/></g>
  </symbol>
  <symbol viewBox="0 0 24 24" id="icon-grid" xmlns="http://www.w3.org/2000/svg">
    <g><path d="M4 4h4v4H4zM10 4h4v4h-4zM16 4h4v4h-4zM4 10h4v4H4zM10 10h4v4h-4zM16 10h4v4h-4zM4 16h4v4H4zM10 16h4v4h-4zM16 16h4v4h-4z"/></g>
  </symbol>
  <symbol viewBox="0 0 24 24" id="icon-comment" xmlns="http://www.w3.org/2000/svg">
    <path d="M18.6 3H5.4C4.1 3 3 4.1 3 5.4V15c0 1.3 1.1 2.4 2.4 2.4h3L12 21l3.6-3.6h3c1.3 0 2.4-1.1 2.4-2.4V5.4C21 4.1 19.9 3 18.6 3zM20 15c0 .8-.6 1.4-1.4 1.4h-3.4L12 19.6l-3.2-3.2H5.4c-.8 0-1.4-.6-1.4-1.4V5.4C4 4.6 4.6 4 5.4 4h13.2c.8 0 1.4.6 1.4 1.4V15z"/>
  </symbol>
  <symbol viewBox="0 0 24 24" id="icon-contribute" xmlns="http://www.w3.org/2000/svg">
    <g>
      <path d="M16 10.5h-3.5V7c0-.3-.2-.5-.5-.5s-.5.3-.5.5v3.5H8c-.3 0-.5.2-.5.5s.2.5.5.5h3.5V15c0 .3.2.5.5.5s.5-.2.5-.5v-3.5H16c.3 0 .5-.2.5-.5s-.2-.5-.5-.5zM12 18.5c-1.5 0-2.7 1.2-2.7 2.7s1.2 2.7 2.7 2.7 2.7-1.2 2.7-2.7-1.2-2.7-2.7-2.7zm0 4.3c-.9 0-1.7-.7-1.7-1.7 0-.9.7-1.7 1.7-1.7.9 0 1.7.7 1.7 1.7s-.8 1.7-1.7 1.7z"/>
      <path d="M23.3 15.8l-1.6-.7c.5-1.2.7-2.5.7-3.9s-.3-2.8-.8-4.1c-.5-1.2-1.3-2.4-2.2-3.3-1-1-2.1-1.7-3.3-2.2C13.5.5 10.6.5 8 1.6 6.7 2.2 5.6 3 4.6 3.9c-1 1-1.7 2.1-2.2 3.3-.5 1.3-.8 2.6-.8 4s.3 2.8.8 4c.5 1.2 1.3 2.4 2.2 3.3s2.1 1.7 3.3 2.2h.2c.2 0 .4-.1.5-.3.1-.3 0-.5-.3-.7-1.1-.5-2.1-1.2-3-2-.9-.9-1.5-1.9-2-3-.5-1.2-.7-2.4-.7-3.7 0-1.3.2-2.5.7-3.7.5-1.1 1.2-2.1 2-3 .9-.9 1.9-1.5 3-2 2.3-1 5-1 7.3 0 1.1.5 2.1 1.2 3 2 .9.9 1.5 1.9 2 3 .5 1.2.7 2.4.7 3.7 0 1.2-.2 2.4-.7 3.5l-1.5-.5c-.2-.1-.4 0-.5.1-.1.1-.2.3-.2.5l.5 4.5c0 .2.1.3.3.4h.2c.1 0 .2 0 .3-.1l3.7-2.7c.1-.1.2-.3.2-.5-.1-.1-.2-.3-.3-.4zm-3.5 2.3l-.3-2.8 2.6 1.1-2.3 1.7z"/>
    </g>
  </symbol>
  <symbol viewBox="0 0 24 24" id="icon-contribution" xmlns="http://www.w3.org/2000/svg">
    <path d="M12 15c-1.7 0-3-1.3-3-3s1.3-3 3-3 3 1.3 3 3-1.3 3-3 3zm0-5c-1.1 0-2 .9-2 2s.9 2 2 2 2-.9 2-2-.9-2-2-2z"/>
    <path d="M13.1 18h-1.6C8.6 18 6 15.2 6 12.1V11c0-2.8 2.2-5 5-5h3.1C16.2 6 18 7.8 18 9.9v2.6c0 2.6-2.1 5.5-4.9 5.5zM11 7c-2.2 0-4 1.8-4 4v1.1c0 2.3 1.9 4.9 4.4 4.9H13c2.2 0 3.9-2.4 3.9-4.4V9.9C17 8.3 15.7 7 14.1 7H11z"/>
    <path d="M13 21h-2.5C6.4 21 3 17.6 3 13.5V11c0-4.4 3.6-8 8-8h3.5C18.1 3 21 5.9 21 9.5V13c0 4.4-3.6 8-8 8zM11 4c-3.9 0-7 3.1-7 7v2.5c0 3.6 2.9 6.5 6.5 6.5H13c3.9 0 7-3.1 7-7V9.5c0-3-2.5-5.5-5.5-5.5H11z"/>
  </symbol>
  <symbol viewBox="0 0 24 24" id="icon-filter" xmlns="http://www.w3.org/2000/svg">
    <path d="M21 5.9s-.1.1 0 0c-.1.1-.1.1 0 0-.5 1.6-4.4 5.7-6.9 8.2v4.5L9.9 21v-6.9C7.4 11.6 3.5 7.5 3.1 6v-.1-.2C3 4.4 7.2 3 12 3s9 1.4 9 2.8v.1zM12 4C7.8 4 4.1 5 4.1 5.8S7.8 7.5 12 7.5s7.9-1 7.9-1.7S16.2 4 12 4z"/>
  </symbol>
  <symbol viewBox="0 0 24 24" id="icon-follow" xmlns="http://www.w3.org/2000/svg">
    <path d="M11.9 19.7c-.1 0-.2 0-.3-.1C10.2 18.8 3 14.2 3 9.1c0-2.7 2.2-4.8 4.8-4.8 1.3 0 2.5.5 3.4 1.4.2.2.2.5 0 .7-.2.2-.5.2-.7 0-.7-.8-1.7-1.2-2.7-1.2C5.7 5.2 4 6.9 4 9.1c0 4.5 6.5 8.7 7.9 9.7 1.5-.7 8.1-3.9 8.1-9.5 0-2.1-1.7-3.8-3.9-3.8-2.1 0-3.9 1.7-3.9 3.8 0 .3-.2.5-.5.5s-.5-.2-.5-.5c0-2.7 2.2-4.8 4.8-4.8 2.7 0 4.8 2.2 4.8 4.8 0 6.6-7.5 9.9-9 10.5.2-.1.1-.1.1-.1z"/>
  </symbol>
  <symbol viewBox="0 0 24 24" id="icon-follow-active" xmlns="http://www.w3.org/2000/svg"><path d="M16 4.5c-1.7 0-3.3.9-4.1 2.3-.8-1.4-2.4-2.3-4.1-2.3C5.1 4.5 3 6.7 3 9.3c0 6.5 7.2 9.8 8.9 10.5 1.7-.7 8.9-4 8.9-10.5 0-2.6-2.1-4.8-4.8-4.8z"/>
  </symbol>
  <symbol viewBox="0 0 16 16" id="icon-insert" xmlns="http://www.w3.org/2000/svg">
    <path d="M11 10L8.1 6.8 4.8 10H7v1.8c0 1.7-.9 4.2-4 4.2 4.8 0 6-1.4 6-4.3V10h2z"/>
    <path d="M0 0v13h6v-1H1V3h14v9h-5v1h6V0H0zm2 2H1V1h1v1zm11 0H3V1h10v1z"/>
  </symbol>
  <symbol viewBox="0 0 24 24" id="icon-inspiration" xmlns="http://www.w3.org/2000/svg">
    <path d="M9.5 12.3c-.1 0-.3 0-.4-.1-1.6-1.6-1.6-4.3 0-5.9 1.6-1.6 4.3-1.6 5.9 0 .2.2.2.5 0 .7s-.5.2-.7 0C13.1 5.8 11 5.8 9.8 7c-1.2 1.2-1.2 3.3 0 4.5.2.2.2.5 0 .7 0 0-.1.1-.3.1zM15 21H9c-.3 0-.5-.2-.5-.5s.2-.5.5-.5h6c.3 0 .5.2.5.5s-.2.5-.5.5z"/>
    <path d="M12 23c-1.4 0-2.5-1.1-2.5-2.5h1c0 .8.7 1.5 1.5 1.5s1.5-.7 1.5-1.5h1c0 1.4-1.1 2.5-2.5 2.5zM12 2C8.1 2 5 5.3 5 9.3c0 2.2 1 3.9 1.9 5.4.7 1.1 1.3 2.2 1.3 3.2v.5c0 .4.3.6.6.6h6.5c.3 0 .6-.3.6-.6v-.5c0-1.2.7-2.3 1.3-3.6.8-1.5 1.7-3.1 1.7-5C19 5.3 15.8 2 12 2zm4.4 11.8c-.7 1.3-1.5 2.7-1.5 4.1v.1H9.2v-.1c0-1.3-.7-2.5-1.4-3.7-.9-1.5-1.8-3-1.8-4.9C6 5.8 8.7 3 12 3s6 2.8 6 6.3c0 1.6-.8 3-1.6 4.5z"/>
  </symbol>
  <symbol viewBox="0 0 24 19" id="icon-left-arrow" xmlns="http://www.w3.org/2000/svg">
    <title>left-arrow</title>
    <g fill-rule="nonzero">
      <path d="M23.027 8.31H.97a.97.97 0 0 0 0 1.94h22.058a.97.97 0 1 0 0-1.94z"/>
      <path d="M2.34 9.28l7.587-7.586A.97.97 0 1 0 8.556.323L.284 8.595a.97.97 0 0 0 0 1.37l8.272 8.272a.966.966 0 0 0 1.37 0 .97.97 0 0 0 0-1.37L2.34 9.28z"/>
    </g>
  </symbol>
  <symbol viewBox="-408 286.3 24 24" id="icon-link" xmlns="http://www.w3.org/2000/svg">
    <path d="M-395.1 301.8c-.5 0-.9-.1-1.3-.3-.4-.2-.8-.4-1.2-.8l-.9-.9c-.3-.3-.6-.7-.8-1.2l.9-.4c.1.3.3.6.5.8l.9.9c.2.2.5.4.8.5.6.2 1.3.2 1.9 0 .3-.1.6-.3.8-.5l4.3-4.3c.2-.2.4-.5.5-.8.1-.3.2-.6.2-.9 0-.3-.1-.6-.2-.9-.1-.3-.3-.6-.5-.8l-.9-.9c-.2-.2-.5-.4-.8-.5-.6-.2-1.3-.2-1.9 0-.3.1-.6.3-.8.5l-2.1 2.1-.7-.7 2.1-2.1c.3-.3.7-.6 1.2-.8.8-.3 1.8-.3 2.6 0 .4.2.8.4 1.2.8l.9.9c.3.3.6.7.8 1.2.2.4.3.9.3 1.3 0 .5-.1.9-.3 1.3-.2.4-.4.8-.8 1.2l-4.3 4.3c-.3.3-.7.6-1.2.8-.3.1-.8.2-1.2.2z"/>
    <path d="M-400.3 306.9c-.5 0-.9-.1-1.3-.3-.4-.2-.8-.4-1.2-.8l-.9-.9c-.3-.3-.6-.7-.8-1.2-.2-.4-.3-.9-.3-1.3 0-.5.1-.9.3-1.3.2-.4.4-.8.8-1.2l4.3-4.3c.3-.3.7-.6 1.2-.8.8-.3 1.8-.3 2.6 0 .4.2.8.4 1.2.8l.9.9c.3.3.6.7.8 1.2l-.9.4c-.1-.3-.3-.6-.5-.8l-.9-.9c-.2-.2-.5-.4-.8-.5-.6-.2-1.3-.2-1.9 0-.3.1-.6.3-.8.5l-4.3 4.3c-.2.2-.4.5-.5.8-.1.3-.2.6-.2.9s.1.6.2.9c.1.3.3.6.5.8l.9.9c.2.2.5.4.8.6.6.2 1.3.2 1.9 0 .3-.1.6-.3.8-.5l2.1-2.1.7.7-2.1 2.1c-.3.3-.7.6-1.2.8-.5.2-.9.3-1.4.3z"/>
  </symbol>
  <symbol viewBox="0 0 24 24" id="icon-linkedin" xmlns="http://www.w3.org/2000/svg">
    <path d="M21.6 14.1v7h-4.1v-6.6c0-1.6-.6-2.8-2.1-2.8-1.2 0-1.8.8-2.1 1.4-.1.3-.2.6-.2 1v7h-4s.1-11.1 0-12.4h4.1v1.7c.5-.9 1.4-2 3.6-2 2.8.1 4.8 1.8 4.8 5.7zM4.8 2.9c-1.4 0-2.4 1-2.4 2 0 1.2.9 2.1 2.3 2.1s2.4-1 2.4-2.1c0-1.2-1-2-2.3-2zM2.7 21.1h4V8.7h-4v12.4z"/>
  </symbol>
  <symbol viewBox="0 0 24 24" id="icon-remove" xmlns="http://www.w3.org/2000/svg">
    <path d="M4 11h16v2H4z"/>
  </symbol>
  <symbol viewBox="0 0 48 80" id="icon-moderation-phase" xmlns="http://www.w3.org/2000/svg">
    <title>funnel</title>
    <g fill-rule="nonzero">
      <path d="M17.737 77.815V60.81L.439 35.102c-.702-.81-.4-3.034 1.649-3.102h43.824c1.19 0 2.703 1.405 1.649 3.102L30.263 60.81v10.556a2 2 0 0 1-.79 1.59l-8.546 6.449c-.488.546-2.937.907-3.19-1.59zM5.834 35.98l15.551 23.113c.225.331.342.712.342 1.112v13.62l4.566-3.445V60.205c0-.4.117-.78.341-1.112L42.166 35.98H5.834zM34.363 10.862l-1.838-.311a10.376 10.376 0 0 0-.738-1.783l1.083-1.515a1.612 1.612 0 0 0-.175-2.084l-1.63-1.63a1.605 1.605 0 0 0-2.078-.174l-1.52 1.082a10.268 10.268 0 0 0-1.849-.76l-.306-1.815A1.616 1.616 0 0 0 23.715.52h-2.302c-.793 0-1.466.569-1.597 1.35l-.317 1.86a10.12 10.12 0 0 0-1.778.75l-1.504-1.084a1.606 1.606 0 0 0-.94-.3c-.432 0-.843.17-1.143.475l-1.636 1.63a1.619 1.619 0 0 0-.175 2.084l1.094 1.536c-.3.575-.541 1.17-.727 1.789l-1.816.306a1.616 1.616 0 0 0-1.35 1.597v2.302c0 .793.568 1.466 1.35 1.597l1.86.317c.191.613.443 1.209.749 1.778l-1.077 1.498a1.612 1.612 0 0 0 .175 2.084l1.63 1.63a1.605 1.605 0 0 0 2.077.174l1.537-1.093c.552.29 1.132.525 1.728.71l.307 1.838c.13.782.803 1.351 1.596 1.351h2.308c.793 0 1.466-.569 1.597-1.35l.312-1.838a10.376 10.376 0 0 0 1.783-.739l1.515 1.083c.273.197.601.301.94.301.432 0 .837-.17 1.143-.476l1.63-1.63a1.619 1.619 0 0 0 .175-2.083l-1.083-1.52c.3-.575.552-1.17.738-1.783l1.838-.307a1.616 1.616 0 0 0 1.35-1.596v-2.303a1.596 1.596 0 0 0-1.34-1.597zm-.126 3.9c0 .07-.05.13-.12.142l-2.297.383a.734.734 0 0 0-.59.541 8.755 8.755 0 0 1-.952 2.291.74.74 0 0 0 .032.804l1.351 1.903a.149.149 0 0 1-.016.186l-1.63 1.63a.139.139 0 0 1-.104.044.134.134 0 0 1-.082-.027l-1.898-1.351a.739.739 0 0 0-.803-.033 8.755 8.755 0 0 1-2.292.952.726.726 0 0 0-.541.59l-.389 2.297a.142.142 0 0 1-.142.12h-2.302a.142.142 0 0 1-.142-.12l-.383-2.297a.734.734 0 0 0-.542-.59 9.09 9.09 0 0 1-2.242-.92.757.757 0 0 0-.372-.098.72.72 0 0 0-.426.137l-1.914 1.362a.163.163 0 0 1-.082.027.147.147 0 0 1-.104-.044l-1.63-1.63a.148.148 0 0 1-.016-.185l1.345-1.887c.17-.24.18-.558.033-.81a8.672 8.672 0 0 1-.963-2.285.749.749 0 0 0-.59-.542l-2.314-.394a.142.142 0 0 1-.12-.142v-2.302c0-.071.05-.131.12-.142l2.28-.383a.74.74 0 0 0 .597-.547c.202-.804.514-1.58.935-2.297a.73.73 0 0 0-.038-.798l-1.362-1.914a.149.149 0 0 1 .016-.186l1.63-1.63a.139.139 0 0 1 .104-.044c.033 0 .06.011.082.027l1.887 1.346c.24.17.558.18.81.033a8.672 8.672 0 0 1 2.285-.963.749.749 0 0 0 .542-.59l.393-2.314a.142.142 0 0 1 .143-.12h2.302c.071 0 .131.05.142.12l.383 2.28a.74.74 0 0 0 .547.597c.826.208 1.613.53 2.346.962a.74.74 0 0 0 .804-.033l1.887-1.356a.163.163 0 0 1 .082-.027c.022 0 .065.005.104.044l1.63 1.63c.049.049.054.125.016.185l-1.351 1.898a.739.739 0 0 0-.033.804c.427.716.744 1.487.952 2.291a.726.726 0 0 0 .59.542l2.297.388c.071.01.12.071.12.142v2.303h-.005z"/>
      <path d="M22.616 7.958a5.653 5.653 0 0 0-5.65 5.65 5.653 5.653 0 0 0 5.65 5.649 5.653 5.653 0 0 0 5.65-5.65 5.653 5.653 0 0 0-5.65-5.649zm0 9.822a4.175 4.175 0 0 1-4.173-4.172 4.175 4.175 0 0 1 4.173-4.173 4.175 4.175 0 0 1 4.173 4.173 4.175 4.175 0 0 1-4.173 4.172z"/>
    </g>
  </symbol>
  <symbol viewBox="0 0 24 24" id="icon-more" xmlns="http://www.w3.org/2000/svg">
    <g>
      <circle cx="5" cy="12" r="2"/>
      <circle cx="12" cy="12" r="2"/>
      <circle cx="19" cy="12" r="2"/>
    </g>
  </symbol>
  <symbol viewBox="-408 286.3 24 24" id="icon-next" xmlns="http://www.w3.org/2000/svg">
    <path d="M-400 289.3c.3 0 .5.1.7.3l8 8c.2.2.3.4.3.7s-.1.5-.3.7l-8 8c-.4.4-1 .4-1.4 0s-.4-1 0-1.4l7.3-7.3-7.3-7.3c-.4-.4-.4-1 0-1.4.2-.2.4-.3.7-.3z"/>
  </symbol>
  <symbol viewBox="0 0 24 24" id="icon-notification" xmlns="http://www.w3.org/2000/svg">
    <path d="M19.8 16.7L18.5 15v-3c0-3.2-2.1-6-5-6.7v-.8c0-.9-.7-1.6-1.5-1.6s-1.5.7-1.5 1.6v.8c-2.9.7-5 3.5-5 6.7v3l-1.2 1.6-.1.1c-.2.5-.2 1.1.1 1.5.3.4.7.7 1.2.7h4c.2 1.1 1.2 2 2.4 2s2.2-.9 2.4-2h4c.5 0 1-.3 1.2-.7.5-.4.5-1 .3-1.5zM12 19.9c-.7 0-1.2-.4-1.4-1h2.8c-.2.6-.7 1-1.4 1zm6.8-2.2c-.1.1-.2.2-.4.2H5.6c-.2 0-.3-.1-.4-.2-.1-.2-.1-.4-.1-.5l1.4-1.8V12c0-2.8 1.7-5.1 4.2-5.7l.8-.3V4.5c0-.3.2-.6.5-.6s.5.3.5.6V6l.8.2c2.5.6 4.2 3 4.2 5.7v3.4l1.4 1.9c.1.2 0 .3-.1.5z"/>
  </symbol>
  <symbol viewBox="4 -4 24 24" id="icon-overview" xmlns="http://www.w3.org/2000/svg">
    <path d="M19.5 16h-.2c-2.8-.8-4.3-1.2-6.3-1.2s-3.6.4-6.4 1.2c-.2 0-.3 0-.5-.1-.1-.1-.2-.3-.2-.4V1.8c0-.2.2-.4.4-.5C9.2.4 10.9 0 13 0s3.7.4 6.6 1.3c.2 0 .4.2.4.5v13.7c0 .2-.1.3-.2.4-.1.1-.2.1-.3.1zM7 2.2v12.6c2.6-.7 4.1-1.1 6-1.1s3.3.3 5.9 1.1V2.2c-2.6-.8-4-1.1-5.9-1.1-1.9 0-3.4.3-6 1.1z"/>
    <path d="M17 5.5c-3.2-.5-4.8-.5-8 0-.3 0-.5-.2-.6-.5-.1-.3.2-.6.5-.6 3.3-.6 5-.6 8.3 0 .3.1.5.3.5.7-.1.2-.4.4-.7.4zM17 8.5c-3.2-.5-4.8-.5-8 0-.3 0-.5-.2-.6-.5-.1-.3.2-.6.5-.6 3.3-.6 5-.6 8.3 0 .3.1.5.3.5.7-.1.2-.4.4-.7.4zM17 11.5c-3.2-.5-4.8-.5-8 0-.3 0-.6-.2-.7-.5-.1-.3.2-.6.5-.7 3.3-.6 5-.6 8.3 0 .3.1.5.3.5.7 0 .3-.3.5-.6.5z"/>
  </symbol>
  <symbol viewBox="0 0 24 24" id="icon-pitch" xmlns="http://www.w3.org/2000/svg">
    <path d="M10 8l5.3 4-5.3 4z"/>
    <path d="M21.3 7.7c-.3-1.4-1.8-2.7-3.2-3-5.2-.9-7-.9-12.2 0-1.4.2-2.9 1.6-3.2 3-.9 3.4-.9 5.2 0 8.7.3 1.4 1.8 2.7 3.2 3 2.6.4 4.4.6 6.1.6 1.7 0 3.5-.2 6.1-.7 1.4-.3 2.9-1.6 3.2-3 .9-3.4.9-5.2 0-8.6zm-.9 8.4c-.3 1-1.4 2.1-2.4 2.2-2.6.5-4.3.7-6 .7-1.7 0-3.4-.2-5.9-.6-1-.2-2.2-1.3-2.4-2.2-.8-3.3-.8-4.9 0-8.2.3-1 1.4-2.1 2.4-2.2C8.4 5.2 10.2 5 12 5c1.8 0 3.6.3 5.9.7 1 .2 2.2 1.3 2.4 2.2.9 3.3.9 4.9.1 8.2z"/>
  </symbol>
  <symbol viewBox="0 0 24 24" id="icon-add" xmlns="http://www.w3.org/2000/svg">
    <path d="M11 4h2v16h-2z"/><path d="M4 11h16v2H4z"/>
  </symbol>
  <symbol viewBox="-408 286.3 24 24" id="icon-previous" xmlns="http://www.w3.org/2000/svg">
    <path d="M-381 290.3l8 8M-373 298.3l-8 8M-393 307.3c-.3 0-.5-.1-.7-.3l-8-8c-.2-.2-.3-.4-.3-.7s.1-.5.3-.7l8-8c.4-.4 1-.4 1.4 0s.4 1 0 1.4l-7.3 7.3 7.3 7.3c.4.4.4 1 0 1.4-.2.2-.4.3-.7.3z"/>
  </symbol>
  <symbol viewBox="0 0 24 24" id="icon-rating" xmlns="http://www.w3.org/2000/svg">
    <path d="M20.7 11.2c.5-.4.2-1.2-.4-1.2h-5.4c-.3 0-.5-.2-.6-.5l-1.7-6c-.2-.6-1-.6-1.2 0l-1.7 6c-.1.3-.3.4-.6.4H3.6c-.6 0-.9.8-.4 1.2l4.4 2.8c.2.2.3.5.2.8l-1.7 5.4c-.2.6.5 1.1 1 .8l4.4-3.4c.2-.2.5-.2.8 0l4.4 3.4c.5.4 1.2-.1 1-.8L16 14.7c-.1-.3 0-.6.2-.8l4.5-2.7z"/>
  </symbol>
  <symbol viewBox="0 0 24 24" id="icon-report" xmlns="http://www.w3.org/2000/svg">
    <path d="M20.7 2.3c-1.2-.5-2.4-.7-3.6-.7-1.7 0-3.2.5-4.7.9-1.5.5-2.9.9-4.5.9C7 3.4 6 3.2 5 2.8V1H4v21h1v-6.1c1 .3 2 .5 2.9.5 1.7 0 3.2-.5 4.7-.9s2.8-.8 4.4-.8c1.1 0 2.2.2 3.3.6l.7.3V2.4l-.3-.1zM20 14.1c-1-.3-2-.5-2.9-.5-1.7 0-3.2.5-4.7.9s-2.8.8-4.4.8c-1 0-2-.2-2.9-.5V3.9c1 .3 2 .5 2.9.5 1.7 0 3.2-.5 4.7-.9s2.8-.8 4.4-.8c1 0 2 .2 2.9.5v10.9z"/>
  </symbol>
  <symbol viewBox="0 0 24 24" id="icon-search" xmlns="http://www.w3.org/2000/svg">
    <path d="M20.7 19.3l-4.8-4.8c.9-1.2 1.5-2.7 1.5-4.3 0-4-3.2-7.2-7.2-7.2S3 6.2 3 10.2s3.2 7.2 7.2 7.2c1.6 0 3.1-.5 4.3-1.5l4.8 4.8c.2.2.5.3.7.3s.5-.1.7-.3c.4-.4.4-1 0-1.4zM4 10.2C4 6.8 6.8 4 10.2 4c3.4 0 6.2 2.8 6.2 6.2 0 3.4-2.8 6.2-6.2 6.2-3.4 0-6.2-2.8-6.2-6.2z"/>
  </symbol>
  <symbol viewBox="0 0 24 24" id="icon-select" xmlns="http://www.w3.org/2000/svg">
    <path d="M16 10l-4 4-4-4z"/>
  </symbol>
  <symbol viewBox="0 0 24 24" id="icon-settings" xmlns="http://www.w3.org/2000/svg">
    <path d="M19.4 13c0-.3.1-.6.1-1s0-.7-.1-1l2.1-1.6c.2-.1.2-.4.1-.6l-2-3.5c-.1-.2-.4-.3-.6-.2l-2.5 1c-.5-.4-1.1-.7-1.7-1l-.4-2.7c.1-.2-.1-.4-.4-.4h-4c-.2 0-.5.2-.5.4l-.4 2.7c-.6.2-1.1.6-1.7 1l-2.5-1c-.2-.1-.4 0-.6.2l-2 3.5c-.1.1 0 .4.2.6L4.6 11c0 .3-.1.6-.1 1s0 .7.1 1l-2.1 1.6c-.2.1-.2.4-.1.6l2 3.5c.1.2.3.3.6.2l2.5-1c.5.4 1.1.7 1.7 1l.4 2.6c0 .2.2.4.5.4h4c.3 0 .5-.2.5-.4l.4-2.6c.6-.3 1.2-.6 1.7-1l2.5 1c.2.1.5 0 .6-.2l2-3.5c.1-.2.1-.5-.1-.6L19.4 13zM12 15.5c-1.9 0-3.5-1.6-3.5-3.5s1.6-3.5 3.5-3.5 3.5 1.6 3.5 3.5-1.6 3.5-3.5 3.5z"/>
  </symbol>
  <symbol viewBox="0 0 24 24" id="icon-share-ideas" xmlns="http://www.w3.org/2000/svg">
    <path d="M9.5 12.3c-.1 0-.3 0-.4-.1-1.6-1.6-1.6-4.3 0-5.9s4.3-1.6 5.9 0c.2.2.2.5 0 .7s-.5.2-.7 0C13.1 5.8 11 5.8 9.8 7s-1.2 3.3 0 4.5c.2.2.2.5 0 .7 0 0-.1.1-.3.1zM15 21H9c-.3 0-.5-.2-.5-.5s.2-.5.5-.5h6c.3 0 .5.2.5.5s-.2.5-.5.5z"/>
    <path d="M12 23c-1.4 0-2.5-1.1-2.5-2.5h1c0 .8.7 1.5 1.5 1.5s1.5-.7 1.5-1.5h1c0 1.4-1.1 2.5-2.5 2.5zM12 2C8.1 2 5 5.3 5 9.3c0 2.2 1 3.9 1.9 5.4.7 1.1 1.3 2.2 1.3 3.2v.5c0 .4.3.6.6.6h6.5c.3 0 .6-.3.6-.6v-.5c0-1.2.7-2.3 1.3-3.6.8-1.5 1.7-3.1 1.7-5C19 5.3 15.8 2 12 2zm4.4 11.8c-.7 1.3-1.5 2.7-1.5 4.1v.1H9.2v-.1c0-1.3-.7-2.5-1.4-3.7-.9-1.5-1.8-3-1.8-4.9C6 5.8 8.7 3 12 3s6 2.8 6 6.3c0 1.6-.8 3-1.6 4.5z"/>
  </symbol>
  <symbol viewBox="0 0 24 24" id="icon-sketch" xmlns="http://www.w3.org/2000/svg">
    <g>
      <path d="M9.4 20.6C7.5 19.3 5.7 18 4 16.5c-1-.9-2-2.3-.5-3.5.3-.2 1-.3 1.3-.4.8-.3 1.5-.9 2-1.6C9.2 7.9 4.9 5 3 3c-.2-.5-.7 0-.4.3 1.8 2 6.1 5.1 3.2 7.7-1.1 1-3.6.9-4 2.6-.3 1.2.7 2.2 1.4 3C5 18.3 7 19.8 9.1 21.2c.4.2.7-.4.3-.6z"/>
      <path d="M21.8 4.4l-.7-.7c-.9-.9-2.6-.9-3.5 0l-.4.3-8.8 8.8c-.1.1-.1.1-.1.2l-1.8 5.3c-.1.2 0 .4.1.5.1.2.2.2.4.2h.2l5.3-1.8c.1 0 .1-.1.2-.1l9.2-9.2c.5-.5.7-1.1.7-1.8-.1-.6-.3-1.2-.8-1.7zM11.2 15.7l.7.7-2.7.9-1-1 .9-2.8 7.3-7.3 2.1 2.1-7.3 7.4zM20 8.3l-2.8-2.8.7-.7 2.8 2.8-.7.7z"/>
    </g>
  </symbol>
  <symbol viewBox="0 0 24 24" id="icon-solution" xmlns="http://www.w3.org/2000/svg">
    <path d="M11.7 18h-1.4C7.8 18 6 16.2 6 13.7V9.3C6 7.4 7.4 6 9.3 6h4.4c2.5 0 4.3 1.8 4.3 4.3v1.4c0 3.6-2.7 6.3-6.3 6.3zM9.3 7C7.9 7 7 7.9 7 9.3v4.4c0 1.9 1.4 3.3 3.3 3.3h1.4c3 0 5.3-2.3 5.3-5.3v-1.4C17 8.4 15.6 7 13.7 7H9.3z"/>
    <path d="M11 22c-5.2 0-9-3.8-9-9v-2c0-5.2 3.8-9 9-9h3c4.7 0 8 3.3 8 8v1c0 6.3-4.7 11-11 11zm0-19c-4.7 0-8 3.3-8 8v2c0 4.7 3.3 8 8 8 5.8 0 10-4.2 10-10v-1c0-4.1-2.9-7-7-7h-3z"/>
    <path d="M12 9c-1.7 0-3 1.3-3 3s1.3 3 3 3 3-1.3 3-3-1.3-3-3-3zm0 5c-1.1 0-2-.9-2-2s.9-2 2-2 2 .9 2 2-.9 2-2 2z"/>
  </symbol>
  <symbol viewBox="0 0 24 24" id="icon-stats" xmlns="http://www.w3.org/2000/svg">
    <g>
      <path d="M7 11v9H3v-9h4m1-1H2v11h6V10zM21 16v4h-4v-4h4m1-1h-6v6h6v-6zM14 5v15h-4V5h4m1-1H9v17h6V4z"/>
    </g>
  </symbol>
  <symbol viewBox="0 0 24 24" id="icon-submission-phase" xmlns="http://www.w3.org/2000/svg">
    <path d="M11.7 18h-1.4C7.8 18 6 16.2 6 13.7V9.3C6 7.4 7.4 6 9.3 6h4.4c2.5 0 4.3 1.8 4.3 4.3v1.4c0 3.6-2.7 6.3-6.3 6.3zM9.3 7C7.9 7 7 7.9 7 9.3v4.4c0 1.9 1.4 3.3 3.3 3.3h1.4c3 0 5.3-2.3 5.3-5.3v-1.4C17 8.4 15.6 7 13.7 7H9.3z"/>
    <path d="M11 22c-5.2 0-9-3.8-9-9v-2c0-5.2 3.8-9 9-9h3c4.7 0 8 3.3 8 8v1c0 6.3-4.7 11-11 11zm0-19c-4.7 0-8 3.3-8 8v2c0 4.7 3.3 8 8 8 5.8 0 10-4.2 10-10v-1c0-4.1-2.9-7-7-7h-3z"/>
    <path d="M12 9c-1.7 0-3 1.3-3 3s1.3 3 3 3 3-1.3 3-3-1.3-3-3-3zm0 5c-1.1 0-2-.9-2-2s.9-2 2-2 2 .9 2 2-.9 2-2 2z"/>
  </symbol>
  <symbol viewBox="0 0 24 24" id="icon-summary" xmlns="http://www.w3.org/2000/svg">
    <path d="M18 6c-1.4-1.4-2.8-2.2-3.2-1.8L4.2 14.9l.4 4.6 4.6.4L19.7 9.2c.4-.4-.4-1.8-1.7-3.2zM8.9 18.9l-3.7-3.7L15 5.4c.3.6.9 1.4 1.6 2.1.7.7 1.5 1.3 2.1 1.6l-9.8 9.8z"/>
  </symbol>
  <symbol viewBox="0 0 16 16" id="icon-survey-copy" xmlns="http://www.w3.org/2000/svg">
    <title>copy-item</title>
    <g fill-rule="nonzero">
      <path d="M12.443 15.778H.666a.623.623 0 0 1-.623-.623V3.377c0-.344.279-.623.623-.623h11.777c.345 0 .624.28.624.623v11.778a.623.623 0 0 1-.624.623zM1.29 14.53H11.82V4.001H1.29v10.53z"/>
      <path d="M15.112 13.024h-1.265a.623.623 0 0 1 0-1.246h.642V1.247H3.958v.693a.623.623 0 1 1-1.247 0V.623c0-.344.28-.623.623-.623h11.778c.344 0 .623.28.623.623v11.778a.623.623 0 0 1-.623.623z"/>
    </g>
  </symbol>
  <symbol viewBox="0 0 14 18" id="icon-survey-delete" xmlns="http://www.w3.org/2000/svg">
    <title>delete-button</title>
    <g fill-rule="nonzero">
      <path d="M11.998 2.069H9.31A2.34 2.34 0 0 0 6.988 0a2.34 2.34 0 0 0-2.321 2.069H1.978A1.975 1.975 0 0 0 .006 4.042v.101c0 .832.517 1.543 1.246 1.833v9.32c0 1.088.885 1.974 1.973 1.974h7.526a1.975 1.975 0 0 0 1.973-1.973v-9.32a1.975 1.975 0 0 0 1.247-1.834v-.1a1.975 1.975 0 0 0-1.973-1.974zM6.988.936c.682 0 1.25.488 1.376 1.133H5.612A1.404 1.404 0 0 1 6.988.936zm4.8 14.36c0 .572-.465 1.038-1.037 1.038H3.225a1.039 1.039 0 0 1-1.037-1.037v-9.18h9.6v9.18zm1.247-11.153c0 .572-.465 1.038-1.037 1.038H1.978A1.039 1.039 0 0 1 .941 4.143v-.1c0-.573.466-1.038 1.037-1.038h10.02c.572 0 1.037.465 1.037 1.037v.101z"/>
      <path d="M4.48 15.137c.258 0 .468-.21.468-.468V9.402a.468.468 0 0 0-.936 0v5.267c0 .259.21.468.468.468zM6.988 15.137c.258 0 .468-.21.468-.468V9.402a.468.468 0 0 0-.936 0v5.267c0 .259.21.468.468.468zM9.496 15.137c.259 0 .468-.21.468-.468V9.402a.468.468 0 0 0-.935 0v5.267c0 .259.21.468.467.468z"/>
    </g>
  </symbol>
  <symbol viewBox="0 0 16 16" id="icon-survey-free" xmlns="http://www.w3.org/2000/svg">
    <title>if_edit_2199097</title>
    <g fill-rule="nonzero">
      <path d="M12.983 15.269H.777V3.063H6.88v-.686H.091v13.577H13.67V8.343h-.686z"/>
      <path d="M4.023 9.417l-.48 2.994 2.994-.48.297-.32 9.097-9.074L13.417.046 4.343 9.12l-.32.297zm.617.48l1.394 1.417-1.691.275.297-1.692zm10.309-7.36l-.892.914L12.55 1.92l.914-.891 1.486 1.508zM12.046 2.4l1.531 1.531-6.994 6.972L5.074 9.37 12.046 2.4z"/>
    </g>
  </symbol>
  <symbol viewBox="0 0 16 16" id="icon-survey-logic" xmlns="http://www.w3.org/2000/svg">
    <title>logic</title>
    <path d="M12.945 9.209l-4.209-2.47h2.35V0h-6.74v6.739h2.446l-3.807 2.47H.211v6.74H6.95v-6.74H4.37L7.717 7.03l3.869 2.179H8.998v6.74h6.74v-6.74h-2.793zM5.605 1.31h4.222v4.223H5.605V1.31zm.087 9.209v4.223H1.47v-4.223h4.222zm8.787 4.222h-4.222v-4.223h4.222v4.223z" fill-rule="nonzero"/>
  </symbol>
  <symbol viewBox="0 0 16 16" id="icon-survey-move" xmlns="http://www.w3.org/2000/svg">
    <title>move</title>
    <path d="M15.871 7.75l-2.328-2.33a.334.334 0 0 0-.568.236v.998c0 .088.035.172.097.235l.43.43H8.65V2.467l.43.43a.332.332 0 0 0 .235.097h.998a.332.332 0 0 0 .235-.568L8.22.097a.333.333 0 0 0-.47 0l-2.33 2.33a.334.334 0 0 0 .236.567h.998a.332.332 0 0 0 .235-.097l.43-.43v4.852H2.467l.43-.43a.332.332 0 0 0 .097-.235v-.998a.333.333 0 0 0-.568-.236L.097 7.75c-.13.13-.13.34 0 .47l2.33 2.328a.333.333 0 0 0 .567-.235v-.998a.332.332 0 0 0-.097-.235l-.43-.43h4.852v4.852l-.43-.43a.332.332 0 0 0-.235-.097h-.998a.332.332 0 0 0-.236.567l2.33 2.33a.332.332 0 0 0 .47 0l2.328-2.33a.334.334 0 0 0-.235-.567h-.998a.332.332 0 0 0-.235.097l-.43.43V8.65h4.852l-.43.43a.332.332 0 0 0-.097.235v.998a.333.333 0 0 0 .568.235L15.87 8.22c.13-.13.13-.34 0-.47z" fill-rule="nonzero"/>
  </symbol>
  <symbol viewBox="0 0 17 17" id="icon-survey-multiple" xmlns="http://www.w3.org/2000/svg">
    <title>check-square</title>
    <g fill-rule="nonzero">
      <path d="M15.65 4.168a.454.454 0 0 0-.454.454v11.346H.908V1.681h11.11a.454.454 0 0 0 0-.908H.453A.454.454 0 0 0 0 1.227v15.195c0 .251.203.454.454.454H15.65c.25 0 .454-.203.454-.454v-11.8a.454.454 0 0 0-.454-.454z"/>
      <path d="M6.086 10.148l-2.981-2.98a.454.454 0 1 0-.643.641l3.303 3.303a.453.453 0 0 0 .642 0L15 2c.118-.118-2.853 2.598-8.914 8.148z"/>
    </g>
  </symbol>
  <symbol viewBox="0 0 16 17" id="icon-survey-picture" xmlns="http://www.w3.org/2000/svg">
    <title>picture</title>
    <g fill-rule="nonzero">
      <path d="M4.16 7.724c.983 0 1.782-.8 1.782-1.782 0-.983-.8-1.782-1.782-1.782-.983 0-1.782.8-1.782 1.782 0 .983.8 1.782 1.782 1.782zm0-2.924c.63 0 1.142.513 1.142 1.142A1.143 1.143 0 1 1 4.16 4.8z"/>
      <path d="M0 0v16.64h16V0H0zm.64.64h14.72v8.553l-3.304-3.029a.32.32 0 0 0-.452.02L8.47 9.617 6.952 8.099a.32.32 0 0 0-.438-.014L1.16 12.8H.64V.64zM15.36 16H.64v-2.56h14.72V16zM2.128 12.8L6.71 8.764l3.297 3.297a.32.32 0 1 0 .452-.453L8.922 10.07l2.938-3.217 3.5 3.208V12.8H2.128z"/>
    </g>
  </symbol>
  <symbol viewBox="0 0 16 16" id="icon-survey-rating" xmlns="http://www.w3.org/2000/svg">
    <title>star</title>
    <path d="M15.953 5.764a.446.446 0 0 0-.358-.301l-4.983-.709L8.369.246a.442.442 0 0 0-.793.003L5.362 4.772.38 5.51a.446.446 0 0 0-.358.302.438.438 0 0 0 .115.453L3.753 9.77l-.836 4.964c-.03.167.039.334.177.433a.438.438 0 0 0 .465.032l4.45-2.357 4.462 2.331a.445.445 0 0 0 .633-.495l-.863-4.934 3.594-3.525a.434.434 0 0 0 .118-.456zM11.46 9.276a.438.438 0 0 0-.125.393l.751 4.305-3.875-2.023a.448.448 0 0 0-.414 0l-3.862 2.046.725-4.311a.442.442 0 0 0-.128-.39L1.398 6.252l4.325-.643a.44.44 0 0 0 .331-.242l1.922-3.925 1.947 3.915a.45.45 0 0 0 .335.242l4.327.617-3.124 3.059z" fill-rule="nonzero"/>
  </symbol>
  <symbol viewBox="0 0 16 19" id="icon-survey-yes-no" xmlns="http://www.w3.org/2000/svg">
    <title>Up Votes</title>
    <path d="M6.602 0h-1.44v3.167l-1.74 5.331a2.088 2.088 0 0 1-1.304 1.336L0 10.556V16.889l1.277.87A7.115 7.115 0 0 0 5.284 19h7.103c1.14 0 2.065-.945 2.065-2.11 0-.584-.464-1.057-1.033-1.057h1.033c.569 0 1.031-.472 1.031-1.056v-1.054c0-.584-.462-1.056-1.031-1.056h.516c.568 0 1.032-.473 1.032-1.056v-1.055c0-.584-.464-1.056-1.032-1.056h-.516c.569 0 1.031-.472 1.031-1.056 0-1.165-.923-2.11-2.064-2.11H8.602l.176-1.627a9.57 9.57 0 0 0-.149-3C8.42.72 7.59 0 6.602 0m0 .905c.56 0 1.038.409 1.161.993a8.55 8.55 0 0 1 .136 2.71l-.176 1.626a.915.915 0 0 0 .22.703.875.875 0 0 0 .659.301h4.817c.65 0 1.18.541 1.18 1.206a.15.15 0 0 1-.147.151.894.894 0 0 0-.885.905c0 .5.395.905.885.905h.516a.15.15 0 0 1 .147.15v1.056a.15.15 0 0 1-.147.15h-.516a.894.894 0 0 0-.885.906c0 .5.395.904.885.904a.15.15 0 0 1 .147.152v1.054a.15.15 0 0 1-.147.152h-1.033a.895.895 0 0 0-.884.904c0 .5.395.905.884.905a.15.15 0 0 1 .148.151c0 .665-.53 1.206-1.18 1.206H5.284a6.217 6.217 0 0 1-3.516-1.09l-.883-.6v-5.198l1.513-.515a2.999 2.999 0 0 0 1.865-1.908L6 3.453a.925.925 0 0 0 .046-.286V.905h.556" fill-rule="evenodd"/>
  </symbol>
  <symbol viewBox="0 0 24 24" id="icon-upvote" xmlns="http://www.w3.org/2000/svg">
    <path d="M4.1 12.5h.6c-.6 0-1.2.5-1.2 1.2 0 1.3 1 2.3 2.3 2.3h5.5l-.2 1.8c-.1 1.1-.1 2.2.2 3.3.2 1.1 1.2 1.9 2.3 1.9h1.6v-3.5l2-5.9c.2-.7.8-1.2 1.5-1.5l2.4-.8v-7l-1.4-1c-1.4-.8-3-1.3-4.6-1.3H7C5.8 2 4.7 3 4.7 4.3c0 .6.5 1.2 1.2 1.2H4.7c-.6 0-1.2.5-1.2 1.2v1.2c0 .6.6 1.1 1.2 1.1h-.6C3.5 9 3 9.5 3 10.2v1.2c0 .6.5 1.1 1.1 1.1zM4 10.2c0-.1 0-.2.1-.2h.6c.6 0 1-.4 1-1s-.4-1-1-1c-.1 0-.2-.1-.2-.2V6.7c0-.1.1-.2.2-.2h1.2c.6 0 1-.4 1-1s-.4-1-1-1c-.1 0-.2-.1-.2-.2C5.7 3.6 6.3 3 7 3h8c1.4 0 2.8.4 4 1.2l1 .7v5.7l-1.7.6c-1 .3-1.8 1.1-2.1 2.1l-2 5.9c0 .1-.1.2-.1.3V22h-.6c-.6 0-1.2-.5-1.3-1.1-.2-1-.3-2-.2-3l.2-1.8c0-.3-.1-.6-.2-.8-.2-.2-.5-.3-.7-.3H5.9c-.7 0-1.3-.6-1.3-1.3 0-.1.1-.2.2-.2.6 0 1-.4 1-1s-.4-1-1-1h-.7c-.1 0-.1-.1-.1-.2v-1.1z"/>
  </symbol>
  <symbol viewBox="0 0 24 24" id="icon-downvote" xmlns="http://www.w3.org/2000/svg">
    <path d="M19.9 11.5h-.6c.6 0 1.2-.5 1.2-1.2 0-1.3-1-2.3-2.3-2.3h-5.5l.2-1.8c.1-1.1 0-2.2-.2-3.3-.2-1.1-1.2-1.9-2.3-1.9H8.8v3.5l-2 5.9c-.2.7-.8 1.2-1.5 1.5l-2.3.8v7l1.4 1c1.3.8 2.9 1.3 4.5 1.3H17c1.3 0 2.3-1 2.3-2.3 0-.6-.5-1.2-1.2-1.2h1.2c.6 0 1.2-.5 1.2-1.2v-1.2c0-.6-.5-1.2-1.2-1.2h.6c.6 0 1.2-.5 1.2-1.2v-1.2c-.1-.5-.6-1-1.2-1zm.1 2.3c0 .1-.1.2-.2.2h-.6c-.6 0-1 .4-1 1s.4 1 1 1c.1 0 .2.1.2.2v1.2c0 .1-.1.2-.2.2H18c-.6 0-1 .4-1 1s.4 1 1 1c.1 0 .2.1.2.2 0 .7-.6 1.3-1.3 1.3h-8c-1.4 0-2.8-.4-4-1.2l-1-.7v-5.7l1.7-.6c1-.3 1.8-1.1 2.1-2.1l2-5.9c0-.1.1-.2.1-.3V2h.6c.6 0 1.2.5 1.3 1.1.2 1 .3 2 .2 3l-.2 1.8c0 .3.1.6.2.8.2.2.5.3.8.3h5.4c.7 0 1.3.6 1.3 1.3 0 .1-.1.2-.2.2-.6 0-1 .4-1 1s.4 1 1 1h.6c.1 0 .2.1.2.2v1.1z"/>
  </symbol>
  <symbol viewBox="0 0 24 24" id="icon-tick" xmlns="http://www.w3.org/2000/svg">
    <path d="M8.6 20.4c-.3 0-.5-.1-.7-.3L.4 12.6c-.4-.4-.4-1 0-1.4s1-.4 1.4 0L8.6 18 22.3 4.3c.4-.4 1-.4 1.4 0 .4.4.4 1 0 1.4L9.3 20.1c-.2.2-.4.3-.7.3z"/>
  </symbol>
  <symbol viewBox="0 0 24 24" id="icon-update-phase" xmlns="http://www.w3.org/2000/svg">
    <path d="M16 8H8c-.3 0-.5-.2-.5-.5S7.7 7 8 7h8c.3 0 .5.2.5.5s-.2.5-.5.5zM16 11H8c-.3 0-.5-.2-.5-.5s.2-.5.5-.5h8c.3 0 .5.2.5.5s-.2.5-.5.5zM16 14H8c-.3 0-.5-.2-.5-.5s.2-.5.5-.5h8c.3 0 .5.2.5.5s-.2.5-.5.5z"/>
    <path d="M20.5 22.1c-.3 0-.6-.1-.9-.3l-4.9-3.5c-.3-.2-.6-.3-.9-.3H4.5C3.1 18 2 16.9 2 15.5v-10C2 4.1 3.1 3 4.5 3h15C20.9 3 22 4.1 22 5.5v15.1c0 .4-.2.8-.5 1.1-.2.2-.6.4-1 .4zM4.5 4C3.7 4 3 4.7 3 5.5v10c0 .8.7 1.5 1.5 1.5h9.4c.5 0 1 .2 1.5.5l4.9 3.5c.1.1.2.1.3.1.1 0 .3-.1.4-.1.1-.1.2-.2.2-.4V5.5C21 4.7 20.3 4 19.5 4h-15z"/>
  </symbol>
  <symbol viewBox="0 0 24 24" id="icon-usecase" xmlns="http://www.w3.org/2000/svg">
    <path d="M7.9 3C6 3 4.4 4.6 4.4 6.5S6 10 7.9 10s3.5-1.6 3.5-3.5S9.8 3 7.9 3zm0 6C6.5 9 5.4 7.9 5.4 6.5S6.5 4 7.9 4s2.5 1.1 2.5 2.5S9.3 9 7.9 9zM16.1 4c-1.9 0-3.5 1.6-3.5 3.5s1.6 3.5 3.5 3.5 3.5-1.6 3.5-3.5S18 4 16.1 4zm0 6c-1.4 0-2.5-1.1-2.5-2.5S14.7 5 16.1 5s2.5 1.1 2.5 2.5-1.1 2.5-2.5 2.5z"/>
    <path d="M9.8 9H6c-1.9 0-3.3 1.7-3 3.5l1.1 5.8c.2 1 1 1.6 2 1.6h3.7c1 0 1.8-.7 2-1.6l1.1-5.8c.2-1.8-1.2-3.5-3.1-3.5zm2 3.4l-1.1 5.8c-.1.5-.5.8-1 .8H6.1c-.5 0-.9-.3-1-.8L4 12.4c-.1-.6.1-1.2.4-1.6.4-.5 1-.8 1.6-.8h3.8c.6 0 1.2.3 1.5.7.4.5.6 1.1.5 1.7zM18 10h-1.9c-.3 0-.2 1 0 1H18c.6 0 1.2.3 1.5.7.4.5.5 1.1.4 1.6l-1.1 5.8c-.1.5-.5.8-1 .8h-3.7c-.5 0-.9-.3-1-.8l-.4-1.9-.2 1.3c-.1.3-.2.7-.4 1 .2.9 1 1.5 1.9 1.5h3.7c1 0 1.8-.7 2-1.6l1.1-5.8c.5-1.9-.9-3.6-2.8-3.6z"/>
  </symbol>
  <symbol viewBox="0 0 24 24" id="icon-comment-active" xmlns="http://www.w3.org/2000/svg">
    <path d="M16 8H8c-.3 0-.5-.2-.5-.5S7.7 7 8 7h8c.3 0 .5.2.5.5s-.2.5-.5.5zM16 11H8c-.3 0-.5-.2-.5-.5s.2-.5.5-.5h8c.3 0 .5.2.5.5s-.2.5-.5.5zM16 14H8c-.3 0-.5-.2-.5-.5s.2-.5.5-.5h8c.3 0 .5.2.5.5s-.2.5-.5.5z"/>
    <path d="M20.5 22.1c-.3 0-.6-.1-.9-.3l-4.9-3.5c-.3-.2-.6-.3-.9-.3H4.5C3.1 18 2 16.9 2 15.5v-10C2 4.1 3.1 3 4.5 3h15C20.9 3 22 4.1 22 5.5v15.1c0 .4-.2.8-.5 1.1-.2.2-.6.4-1 .4zM4.5 4C3.7 4 3 4.7 3 5.5v10c0 .8.7 1.5 1.5 1.5h9.4c.5 0 1 .2 1.5.5l4.9 3.5c.1.1.2.1.3.1.1 0 .3-.1.4-.1.1-.1.2-.2.2-.4V5.5C21 4.7 20.3 4 19.5 4h-15z"/>
  </symbol>
</svg>
