<?xml version="1.0" encoding="utf-8"?>
<!-- Generator: Adobe Illustrator 18.1.0, SVG Export Plug-In . SVG Version: 6.00 Build 0)  -->
<!DOCTYPE svg PUBLIC "-//W3C//DTD SVG 1.1//EN" "http://www.w3.org/Graphics/SVG/1.1/DTD/svg11.dtd">
<svg version="1.1" id="icon-thumbsdown" xmlns="http://www.w3.org/2000/svg" xmlns:xlink="http://www.w3.org/1999/xlink" x="0px"
	 y="0px" width="24px" height="24px" viewBox="0 0 24 24" enable-background="new 0 0 24 24" xml:space="preserve">
<g id="path">
	<path fill="#8C9393" d="M4.1,12.5h0.6c-0.6,0-1.2,0.5-1.2,1.2c0,1.3,1,2.3,2.3,2.3h3.5h1.2h0.8l-0.2,1.8c-0.1,1.1-0.1,2.2,0.2,3.3
		c0.2,1.1,1.2,1.9,2.3,1.9h1.6v-3.5l2-5.9c0.2-0.7,0.8-1.2,1.5-1.5l2.4-0.8V9V5.5V4.3l-1.4-1C18.3,2.5,16.7,2,15.1,2h-3.4H9.4H7
		C5.8,2,4.7,3,4.7,4.3c0,0.6,0.5,1.2,1.2,1.2H4.7C4.1,5.5,3.5,6,3.5,6.7v1.2C3.5,8.5,4.1,9,4.7,9H4.1C3.5,9,3,9.5,3,10.2v1.2
		C3,12,3.5,12.5,4.1,12.5z M4,10.2C4,10.1,4,10,4.1,10h0.6c0.6,0,1-0.4,1-1s-0.4-1-1-1C4.6,8,4.5,7.9,4.5,7.8V6.7
		c0-0.1,0.1-0.2,0.2-0.2h1.2c0.6,0,1-0.4,1-1s-0.4-1-1-1c-0.1,0-0.2-0.1-0.2-0.2C5.7,3.6,6.3,3,7,3h8c1.4,0,2.8,0.4,4,1.2l1,0.7v5.7
		l-1.7,0.6c-1,0.3-1.8,1.1-2.1,2.1l-2,5.9c0,0.1-0.1,0.2-0.1,0.3V22h-0.6c-0.6,0-1.2-0.5-1.3-1.1c-0.2-1-0.3-2-0.2-3l0.2-1.8
		c0-0.3-0.1-0.6-0.2-0.8c-0.2-0.2-0.5-0.3-0.7-0.3H5.9c-0.7,0-1.3-0.6-1.3-1.3c0-0.1,0.1-0.2,0.2-0.2c0.6,0,1-0.4,1-1s-0.4-1-1-1
		H4.1C4,11.5,4,11.4,4,11.3V10.2z"/>
</g>
</svg>
