<?xml version="1.0" encoding="utf-8"?>
<!-- Generator: Adobe Illustrator 18.1.0, SVG Export Plug-In . SVG Version: 6.00 Build 0)  -->
<!DOCTYPE svg PUBLIC "-//W3C//DTD SVG 1.1//EN" "http://www.w3.org/Graphics/SVG/1.1/DTD/svg11.dtd">
<svg version="1.1" id="icon-comment" xmlns="http://www.w3.org/2000/svg" xmlns:xlink="http://www.w3.org/1999/xlink" x="0px"
	 y="0px" width="24px" height="24px" viewBox="0 0 24 24" enable-background="new 0 0 24 24" xml:space="preserve">
<path fill="#8C9393" d="M21,5.9C21,5.9,20.9,6,21,5.9C20.9,6,20.9,6,21,5.9c-0.5,1.6-4.4,5.7-6.9,8.2v4.5L9.9,21v-6.9
	C7.4,11.6,3.5,7.5,3.1,6c0,0,0,0,0,0c0,0,0,0,0-0.1c0-0.1,0-0.1,0-0.2C3,4.4,7.2,3,12,3s9,1.4,9,2.8C21,5.8,21,5.9,21,5.9z M12,4
	C7.8,4,4.1,5,4.1,5.8S7.8,7.5,12,7.5s7.9-1,7.9-1.7S16.2,4,12,4z"/>
</svg>
