<?xml version="1.0" encoding="utf-8"?>
<!-- Generator: Adobe Illustrator 18.1.0, SVG Export Plug-In . SVG Version: 6.00 Build 0)  -->
<!DOCTYPE svg PUBLIC "-//W3C//DTD SVG 1.1//EN" "http://www.w3.org/Graphics/SVG/1.1/DTD/svg11.dtd">
<svg version="1.1" id="previous_1_" xmlns="http://www.w3.org/2000/svg" xmlns:xlink="http://www.w3.org/1999/xlink" x="0px"
	 y="0px" width="24px" height="24px" viewBox="-408 286.3 24 24" enable-background="new -408 286.3 24 24" xml:space="preserve">
<line fill="#8C9393" x1="-381" y1="290.3" x2="-373" y2="298.3"/>
<line fill="#8C9393" x1="-373" y1="298.3" x2="-381" y2="306.3"/>
<g>
	<path fill="#8C9393" d="M-393,307.3c-0.3,0-0.5-0.1-0.7-0.3l-8-8c-0.2-0.2-0.3-0.4-0.3-0.7s0.1-0.5,0.3-0.7l8-8
		c0.4-0.4,1-0.4,1.4,0s0.4,1,0,1.4l-7.3,7.3l7.3,7.3c0.4,0.4,0.4,1,0,1.4C-392.5,307.2-392.7,307.3-393,307.3z"/>
</g>
</svg>
