<?xml version="1.0" encoding="utf-8"?>
<!-- Generator: Adobe Illustrator 18.1.0, SVG Export Plug-In . SVG Version: 6.00 Build 0)  -->
<!DOCTYPE svg PUBLIC "-//W3C//DTD SVG 1.1//EN" "http://www.w3.org/Graphics/SVG/1.1/DTD/svg11.dtd">
<svg version="1.1" id="icon-thumbsup" xmlns="http://www.w3.org/2000/svg" xmlns:xlink="http://www.w3.org/1999/xlink" x="0px"
	 y="0px" width="24px" height="24px" viewBox="0 0 24 24" enable-background="new 0 0 24 24" xml:space="preserve">
<g id="path">
	<path fill="#8C9393" d="M19.9,11.5h-0.6c0.6,0,1.2-0.5,1.2-1.2c0-1.3-1-2.3-2.3-2.3h-3.5h-1.2h-0.8l0.2-1.8C13,5.1,12.9,4,12.7,2.9
		C12.5,1.8,11.5,1,10.4,1H8.8v3.5l-2,5.9c-0.2,0.7-0.8,1.2-1.5,1.5L3,12.7V15v3.5v1.2l1.4,1C5.7,21.5,7.3,22,8.9,22h3.4h2.3H17
		c1.3,0,2.3-1,2.3-2.3c0-0.6-0.5-1.2-1.2-1.2h1.2c0.6,0,1.2-0.5,1.2-1.2v-1.2c0-0.6-0.5-1.2-1.2-1.2h0.6c0.6,0,1.2-0.5,1.2-1.2v-1.2
		C21,12,20.5,11.5,19.9,11.5z M20,13.8c0,0.1-0.1,0.2-0.2,0.2h-0.6c-0.6,0-1,0.4-1,1s0.4,1,1,1c0.1,0,0.2,0.1,0.2,0.2v1.2
		c0,0.1-0.1,0.2-0.2,0.2h-1.2c-0.6,0-1,0.4-1,1s0.4,1,1,1c0.1,0,0.2,0.1,0.2,0.2c0,0.7-0.6,1.3-1.3,1.3h-8c-1.4,0-2.8-0.4-4-1.2
		l-1-0.7v-5.7l1.7-0.6c1-0.3,1.8-1.1,2.1-2.1l2-5.9c0-0.1,0.1-0.2,0.1-0.3V2h0.6c0.6,0,1.2,0.5,1.3,1.1c0.2,1,0.3,2,0.2,3l-0.2,1.8
		c0,0.3,0.1,0.6,0.2,0.8C12.1,8.9,12.4,9,12.7,9h5.4c0.7,0,1.3,0.6,1.3,1.3c0,0.1-0.1,0.2-0.2,0.2c-0.6,0-1,0.4-1,1s0.4,1,1,1h0.6
		c0.1,0,0.2,0.1,0.2,0.2V13.8z"/>
</g>
</svg>
